<svg width="283" height="54" viewBox="0 0 283 54" fill="none" xmlns="http://www.w3.org/2000/svg">
<g clip-path="url(#clip0_104_10)">
<path d="M18.16 9.2V29.24C18.16 31.72 17.4 33.68 15.88 35.12C14.3867 36.56 12.4133 37.28 9.96 37.28C7.50667 37.28 5.52 36.56 4 35.12C2.50667 33.68 1.76 31.72 1.76 29.24H6.36C6.38667 30.4667 6.69333 31.44 7.28 32.16C7.89333 32.88 8.78667 33.24 9.96 33.24C11.1333 33.24 12.0267 32.88 12.64 32.16C13.2533 31.4133 13.56 30.44 13.56 29.24V9.2H18.16ZM45.5381 14.96V37H40.9781V34.4C40.2581 35.3067 39.3115 36.0267 38.1381 36.56C36.9915 37.0667 35.7648 37.32 34.4581 37.32C32.7248 37.32 31.1648 36.96 29.7781 36.24C28.4181 35.52 27.3381 34.4533 26.5381 33.04C25.7648 31.6267 25.3781 29.92 25.3781 27.92V14.96H29.8981V27.24C29.8981 29.2133 30.3915 30.7333 31.3781 31.8C32.3648 32.84 33.7115 33.36 35.4181 33.36C37.1248 33.36 38.4715 32.84 39.4581 31.8C40.4715 30.7333 40.9781 29.2133 40.9781 27.24V14.96H45.5381ZM62.6747 14.6C64.408 14.6 65.9547 14.96 67.3147 15.68C68.7014 16.4 69.7814 17.4667 70.5547 18.88C71.328 20.2933 71.7147 22 71.7147 24V37H67.1947V24.68C67.1947 22.7067 66.7014 21.2 65.7147 20.16C64.728 19.0933 63.3814 18.56 61.6747 18.56C59.968 18.56 58.608 19.0933 57.5947 20.16C56.608 21.2 56.1147 22.7067 56.1147 24.68V37H51.5547V14.96H56.1147V17.48C56.8614 16.5733 57.808 15.8667 58.9547 15.36C60.128 14.8533 61.368 14.6 62.6747 14.6ZM86.4113 14.6C88.1179 14.6 89.6246 14.9467 90.9313 15.64C92.2646 16.3067 93.3046 17.1467 94.0513 18.16V14.96H98.6513V37.36C98.6513 39.3867 98.2246 41.1867 97.3713 42.76C96.5179 44.36 95.2779 45.6133 93.6513 46.52C92.0513 47.4267 90.1313 47.88 87.8913 47.88C84.9046 47.88 82.4246 47.1733 80.4513 45.76C78.4779 44.3733 77.3579 42.48 77.0913 40.08H81.6113C81.9579 41.2267 82.6913 42.1467 83.8113 42.84C84.9579 43.56 86.3179 43.92 87.8913 43.92C89.7313 43.92 91.2113 43.36 92.3313 42.24C93.4779 41.12 94.0513 39.4933 94.0513 37.36V33.68C93.2779 34.72 92.2246 35.6 90.8913 36.32C89.5846 37.0133 88.0913 37.36 86.4113 37.36C84.4913 37.36 82.7313 36.88 81.1313 35.92C79.5579 34.9333 78.3046 33.5733 77.3713 31.84C76.4646 30.08 76.0113 28.0933 76.0113 25.88C76.0113 23.6667 76.4646 21.7067 77.3713 20C78.3046 18.2933 79.5579 16.9733 81.1313 16.04C82.7313 15.08 84.4913 14.6 86.4113 14.6ZM94.0513 25.96C94.0513 24.44 93.7313 23.12 93.0913 22C92.4779 20.88 91.6646 20.0267 90.6513 19.44C89.6379 18.8533 88.5446 18.56 87.3713 18.56C86.1979 18.56 85.1046 18.8533 84.0913 19.44C83.0779 20 82.2513 20.84 81.6113 21.96C80.9979 23.0533 80.6913 24.36 80.6913 25.88C80.6913 27.4 80.9979 28.7333 81.6113 29.88C82.2513 31.0267 83.0779 31.9067 84.0913 32.52C85.1313 33.1067 86.2246 33.4 87.3713 33.4C88.5446 33.4 89.6379 33.1067 90.6513 32.52C91.6646 31.9333 92.4779 31.08 93.0913 29.96C93.7313 28.8133 94.0513 27.48 94.0513 25.96ZM109.201 7.4V37H104.641V7.4H109.201ZM135.388 25.44C135.388 26.2667 135.334 27.0133 135.228 27.68H118.388C118.521 29.44 119.174 30.8533 120.348 31.92C121.521 32.9867 122.961 33.52 124.668 33.52C127.121 33.52 128.854 32.4933 129.868 30.44H134.787C134.121 32.4667 132.908 34.1333 131.148 35.44C129.414 36.72 127.254 37.36 124.668 37.36C122.561 37.36 120.668 36.8933 118.988 35.96C117.334 35 116.028 33.6667 115.068 31.96C114.134 30.2267 113.668 28.2267 113.668 25.96C113.668 23.6933 114.121 21.7067 115.028 20C115.961 18.2667 117.254 16.9333 118.908 16C120.588 15.0667 122.508 14.6 124.668 14.6C126.748 14.6 128.601 15.0533 130.228 15.96C131.854 16.8667 133.121 18.1467 134.028 19.8C134.934 21.4267 135.388 23.3067 135.388 25.44ZM130.628 24C130.601 22.32 130.001 20.9733 128.828 19.96C127.654 18.9467 126.201 18.44 124.468 18.44C122.894 18.44 121.548 18.9467 120.428 19.96C119.308 20.9467 118.641 22.2933 118.428 24H130.628Z" fill="#29292E"/>
<path d="M171.786 42.04L166.906 36.76C165.706 37.1067 164.386 37.28 162.946 37.28C160.359 37.28 157.972 36.68 155.786 35.48C153.626 34.2533 151.906 32.56 150.626 30.4C149.372 28.2133 148.746 25.76 148.746 23.04C148.746 20.32 149.372 17.88 150.626 15.72C151.906 13.56 153.626 11.88 155.786 10.68C157.972 9.45333 160.359 8.84 162.946 8.84C165.559 8.84 167.946 9.45333 170.106 10.68C172.292 11.88 174.012 13.56 175.266 15.72C176.519 17.88 177.146 20.32 177.146 23.04C177.146 25.6 176.586 27.92 175.466 30C174.372 32.0533 172.852 33.7067 170.906 34.96L177.586 42.04H171.786ZM153.426 23.04C153.426 25.0933 153.826 26.9067 154.626 28.48C155.452 30.0267 156.586 31.2267 158.026 32.08C159.466 32.9067 161.106 33.32 162.946 33.32C164.786 33.32 166.426 32.9067 167.866 32.08C169.306 31.2267 170.426 30.0267 171.226 28.48C172.052 26.9067 172.466 25.0933 172.466 23.04C172.466 20.9867 172.052 19.1867 171.226 17.64C170.426 16.0933 169.306 14.9067 167.866 14.08C166.426 13.2533 164.786 12.84 162.946 12.84C161.106 12.84 159.466 13.2533 158.026 14.08C156.586 14.9067 155.452 16.0933 154.626 17.64C153.826 19.1867 153.426 20.9867 153.426 23.04ZM201.71 14.96V37H197.15V34.4C196.43 35.3067 195.483 36.0267 194.31 36.56C193.163 37.0667 191.937 37.32 190.63 37.32C188.897 37.32 187.337 36.96 185.95 36.24C184.59 35.52 183.51 34.4533 182.71 33.04C181.937 31.6267 181.55 29.92 181.55 27.92V14.96H186.07V27.24C186.07 29.2133 186.563 30.7333 187.55 31.8C188.537 32.84 189.883 33.36 191.59 33.36C193.297 33.36 194.643 32.84 195.63 31.8C196.643 30.7333 197.15 29.2133 197.15 27.24V14.96H201.71ZM227.927 25.44C227.927 26.2667 227.873 27.0133 227.767 27.68H210.927C211.06 29.44 211.713 30.8533 212.887 31.92C214.06 32.9867 215.5 33.52 217.207 33.52C219.66 33.52 221.393 32.4933 222.407 30.44H227.327C226.66 32.4667 225.447 34.1333 223.687 35.44C221.953 36.72 219.793 37.36 217.207 37.36C215.1 37.36 213.207 36.8933 211.527 35.96C209.873 35 208.567 33.6667 207.607 31.96C206.673 30.2267 206.207 28.2267 206.207 25.96C206.207 23.6933 206.66 21.7067 207.567 20C208.5 18.2667 209.793 16.9333 211.447 16C213.127 15.0667 215.047 14.6 217.207 14.6C219.287 14.6 221.14 15.0533 222.767 15.96C224.393 16.8667 225.66 18.1467 226.567 19.8C227.473 21.4267 227.927 23.3067 227.927 25.44ZM223.167 24C223.14 22.32 222.54 20.9733 221.367 19.96C220.193 18.9467 218.74 18.44 217.007 18.44C215.433 18.44 214.087 18.9467 212.967 19.96C211.847 20.9467 211.18 22.2933 210.967 24H223.167ZM240.414 37.36C238.681 37.36 237.121 37.0533 235.734 36.44C234.374 35.8 233.294 34.9467 232.494 33.88C231.694 32.7867 231.267 31.5733 231.214 30.24H235.934C236.014 31.1733 236.454 31.96 237.254 32.6C238.081 33.2133 239.107 33.52 240.334 33.52C241.614 33.52 242.601 33.28 243.294 32.8C244.014 32.2933 244.374 31.6533 244.374 30.88C244.374 30.0533 243.974 29.44 243.174 29.04C242.401 28.64 241.161 28.2 239.454 27.72C237.801 27.2667 236.454 26.8267 235.414 26.4C234.374 25.9733 233.467 25.32 232.694 24.44C231.947 23.56 231.574 22.4 231.574 20.96C231.574 19.7867 231.921 18.72 232.614 17.76C233.307 16.7733 234.294 16 235.574 15.44C236.881 14.88 238.374 14.6 240.054 14.6C242.561 14.6 244.574 15.24 246.094 16.52C247.641 17.7733 248.467 19.4933 248.574 21.68H244.014C243.934 20.6933 243.534 19.9067 242.814 19.32C242.094 18.7333 241.121 18.44 239.894 18.44C238.694 18.44 237.774 18.6667 237.134 19.12C236.494 19.5733 236.174 20.1733 236.174 20.92C236.174 21.5067 236.387 22 236.814 22.4C237.241 22.8 237.761 23.12 238.374 23.36C238.987 23.5733 239.894 23.8533 241.094 24.2C242.694 24.6267 244.001 25.0667 245.014 25.52C246.054 25.9467 246.947 26.5867 247.694 27.44C248.441 28.2933 248.827 29.4267 248.854 30.84C248.854 32.0933 248.507 33.2133 247.814 34.2C247.121 35.1867 246.134 35.96 244.854 36.52C243.601 37.08 242.121 37.36 240.414 37.36ZM259.101 18.68V30.88C259.101 31.7067 259.288 32.3067 259.661 32.68C260.061 33.0267 260.728 33.2 261.661 33.2H264.461V37H260.861C258.808 37 257.235 36.52 256.141 35.56C255.048 34.6 254.501 33.04 254.501 30.88V18.68H251.901V14.96H254.501V9.48H259.101V14.96H264.461V18.68H259.101Z" fill="#69BB68"/>
<path d="M264.081 35.986C264.081 35.986 270.922 36.7855 274.504 33.2817C278.086 29.7753 277.269 23.0785 277.269 23.0785C277.269 23.0785 270.428 22.279 266.844 25.7828C263.262 29.2893 264.081 35.986 264.081 35.986Z" stroke="#69BB68" stroke-width="2" stroke-linecap="round" stroke-linejoin="round"/>
<path d="M263.149 34.7434C263.149 34.7434 260.597 28.3467 263.015 23.9814C265.436 19.6155 272.06 18.669 272.06 18.669C272.06 18.669 274.612 25.0657 272.194 29.4331C269.773 33.7991 263.149 34.7434 263.149 34.7434Z" stroke="#69BB68" stroke-width="2" stroke-linecap="round" stroke-linejoin="round"/>
</g>
<defs>
<clipPath id="clip0_104_10">
<rect width="283" height="54" fill="white"/>
</clipPath>
</defs>
</svg>
